<svg xmlns="http://www.w3.org/2000/svg" viewBox="-744.52 502.85 599.984 600.978">
  <defs>
    <style>
      .cls-1 {
        fill: #ffb95a;
      }

      .cls-1, .cls-2, .cls-3, .cls-4 {
        stroke: #fff;
        stroke-width: 5px;
      }

      .cls-2 {
        fill: #82d3c6;
      }

      .cls-3 {
        fill: #de97bb;
      }

      .cls-4 {
        fill: #86bce2;
      }

      .cls-5 {
        fill: #868686;
      }

      .cls-6 {
        fill: #4d4d4d;
      }

      .cls-7 {
        fill: #2c5871;
      }

      .cls-8 {
        fill: #fff;
      }

      .cls-9 {
        fill: #15b0bf;
      }

      .cls-10 {
        fill: #f1f2f2;
      }

      .cls-11 {
        fill: #2c465f;
      }

      .cls-12 {
        fill: #f07549;
      }

      .cls-13 {
        fill: #d1d3d4;
      }

      .cls-14 {
        fill: #a6dae9;
      }

      .cls-15 {
        fill: #0e303f;
      }

      .cls-16 {
        fill: #474f59;
      }
    </style>
  </defs>
  <g id="group-19" transform="translate(-1539 369)">
    <g id="group-4" transform="translate(797.972 137.342)">
      <path id="path-5" class="cls-1" d="M296.019,148.009A146.589,146.589,0,0,1,284.4,205.6s-37.381-76.278-136.391-76.278c-97.494,0-136.391,76.278-136.391,76.278A144.775,144.775,0,0,1,0,148.009a148.009,148.009,0,0,1,296.019,0Z" transform="matrix(0.588, 0.809, -0.809, 0.588, 346.065, 0)"/>
      <path id="path-5-2" data-name="path-5" class="cls-2" d="M296.019,148.009A146.589,146.589,0,0,1,284.4,205.6s-37.381-76.278-136.391-76.278c-97.494,0-136.391,76.278-136.391,76.278A144.775,144.775,0,0,1,0,148.009a148.009,148.009,0,1,1,296.019,0Z" transform="matrix(-0.809, 0.588, -0.588, -0.809, 593, 346.646)"/>
      <path id="path-5-3" data-name="path-5" class="cls-3" d="M296.019,148.009A146.589,146.589,0,0,1,284.4,205.6s-37.381-76.278-136.391-76.278c-97.494,0-136.391,76.278-136.391,76.278A144.775,144.775,0,0,1,0,148.009a148.009,148.009,0,0,1,296.019,0Z" transform="matrix(-0.588, -0.809, 0.809, -0.588, 246.817, 593.994)"/>
      <path id="path-5-4" data-name="path-5" class="cls-4" d="M296.019,148.009A146.589,146.589,0,0,1,284.4,205.6s-37.381-76.278-136.391-76.278c-97.494,0-136.391,76.278-136.391,76.278A144.775,144.775,0,0,1,0,148.009a148.009,148.009,0,1,1,296.019,0Z" transform="matrix(0.809, -0.588, 0.588, 0.809, 0, 246.817)"/>
    </g>
    <g id="group-6" transform="translate(1148.552 266.318)">
      <g id="group" transform="translate(0 44.468)">
        <g id="group-2" data-name="group" transform="translate(0 1.33)">
          <g id="group-3" data-name="group">
            <path id="path" class="cls-5" d="M28.795,75.565h0c-1.9-.76-6.271-2.28-9.027-3.136-.19-.1-.285-.1-.285-1.045a4.878,4.878,0,0,1,.665-2.28,12.245,12.245,0,0,0,.95-3.136,7.582,7.582,0,0,0,1.33-3.231,5,5,0,0,0,0-2.755c0-.1,0-.1-.1-.19a15.679,15.679,0,0,1,.285-3.8,6.853,6.853,0,0,0-1.425-5.036A7.564,7.564,0,0,0,15.4,48.2h-1.71a7.332,7.332,0,0,0-5.7,2.755,6.853,6.853,0,0,0-1.425,5.036,15.679,15.679,0,0,1,.285,3.8c0,.1,0,.1-.1.19a4.205,4.205,0,0,0,0,2.755,7.582,7.582,0,0,0,1.33,3.231,12.245,12.245,0,0,0,.95,3.136,4.936,4.936,0,0,1,.38,2.28c0,.95,0,.95-.285,1.045C6.276,73.284,1.81,74.9.1,75.66h0v7.126H28.89V75.565Z" transform="translate(-0.1 -48.2)"/>
            <path id="path-2" data-name="path" class="cls-6" d="M20.516,72.429c-.19-.1-.285-.1-.285-1.045A4.878,4.878,0,0,1,20.9,69.1a12.245,12.245,0,0,0,.95-3.136,7.582,7.582,0,0,0,1.33-3.231,5,5,0,0,0,0-2.755c0-.1,0-.1-.1-.19a15.679,15.679,0,0,1,.285-3.8,6.853,6.853,0,0,0-1.425-5.036,7.564,7.564,0,0,0-5.8-2.755H15.1V82.691H29.542V75.565h0A81.946,81.946,0,0,0,20.516,72.429Z" transform="translate(-0.848 -48.2)"/>
          </g>
        </g>
        <g id="group-4-2" data-name="group" transform="translate(54.824 1.33)">
          <g id="group-5" data-name="group">
            <path id="path-3" data-name="path" class="cls-5" d="M86.495,75.565h0c-1.9-.76-6.271-2.28-9.027-3.136-.19-.1-.285-.1-.285-1.045a4.878,4.878,0,0,1,.665-2.28,12.244,12.244,0,0,0,.95-3.136,7.582,7.582,0,0,0,1.33-3.231,5,5,0,0,0,0-2.755c0-.1,0-.1-.1-.19a15.679,15.679,0,0,1,.285-3.8,7.323,7.323,0,0,0-1.425-5.036A7.564,7.564,0,0,0,73.1,48.2h-1.71a7.332,7.332,0,0,0-5.7,2.755,6.853,6.853,0,0,0-1.425,5.036,15.679,15.679,0,0,1,.285,3.8c0,.1,0,.1-.1.19a4.205,4.205,0,0,0,0,2.755,7.582,7.582,0,0,0,1.33,3.231,12.245,12.245,0,0,0,.95,3.136,4.935,4.935,0,0,1,.38,2.28c0,.95,0,.95-.285,1.045-2.85.855-7.316,2.47-9.027,3.231h0v7.126H86.495Z" transform="translate(-57.8 -48.2)"/>
            <path id="path-4" data-name="path" class="cls-6" d="M78.216,72.429c-.19-.1-.285-.1-.285-1.045A4.878,4.878,0,0,1,78.6,69.1a12.245,12.245,0,0,0,.95-3.136,7.582,7.582,0,0,0,1.33-3.231,5,5,0,0,0,0-2.755c0-.1,0-.1-.1-.19a15.679,15.679,0,0,1,.285-3.8,7.323,7.323,0,0,0-1.425-5.036,7.564,7.564,0,0,0-5.8-2.755H72.8V82.691H87.242V75.565h0A81.947,81.947,0,0,0,78.216,72.429Z" transform="translate(-58.548 -48.2)"/>
          </g>
        </g>
        <g id="group-6-2" data-name="group" transform="translate(20.809)">
          <g id="group-7" data-name="group">
            <path id="path-5-5" data-name="path" class="cls-5" d="M62.857,85.377h0c-2.66-1.14-8.837-3.231-12.732-4.371-.285-.1-.38-.1-.38-1.52a7.515,7.515,0,0,1,.95-3.231,16,16,0,0,0,1.235-4.371,9.44,9.44,0,0,0,1.9-4.561c.475-2.28.285-3.04-.1-3.8,0-.1-.1-.19-.1-.285a25.9,25.9,0,0,1,.38-5.416A9.914,9.914,0,0,0,51.93,50.7c-1.235-1.615-3.706-3.611-8.076-3.9h-2.47a10.8,10.8,0,0,0-8.076,3.9,9.813,9.813,0,0,0-2.09,7.126,19.88,19.88,0,0,1,.38,5.321c0,.1-.1.19-.1.285a6.5,6.5,0,0,0-.1,3.8,9.44,9.44,0,0,0,1.9,4.561,16,16,0,0,0,1.235,4.371,7.285,7.285,0,0,1,.57,3.231c0,1.33-.1,1.425-.38,1.52A132.557,132.557,0,0,0,22.1,85.377l-.1-.1V95.448H62.857Z" transform="translate(-22 -46.8)"/>
            <path id="path-6" data-name="path" class="cls-6" d="M51.3,81.006c-.285-.1-.38-.1-.38-1.52a7.515,7.515,0,0,1,.95-3.231A16,16,0,0,0,53.1,71.884,9.44,9.44,0,0,0,55,67.324c.475-2.28.285-3.04-.1-3.8,0-.1-.1-.19-.1-.285a25.9,25.9,0,0,1,.38-5.416A9.914,9.914,0,0,0,53.1,50.7c-1.235-1.615-3.706-3.611-8.076-3.9H43.6V95.448H63.934V85.377h0C61.368,84.331,55.1,82.146,51.3,81.006Z" transform="translate(-23.076 -46.8)"/>
          </g>
        </g>
      </g>
      <g id="group-8" data-name="group" transform="translate(20.619)">
        <path id="path-7" data-name="path" class="cls-7" d="M70.7,28.264a1.686,1.686,0,0,1-1.615,1.71H65.945V36.53l-7.791-6.556H37.915a1.625,1.625,0,0,1-1.615-1.71V8.31A1.686,1.686,0,0,1,37.915,6.6H69.081A1.686,1.686,0,0,1,70.7,8.31Z" transform="translate(-22.523 -0.329)"/>
        <path id="path-8" data-name="path" class="cls-8" d="M21.8,21.664a1.686,1.686,0,0,0,1.615,1.71h3.136V29.93l7.791-6.556H54.581a1.625,1.625,0,0,0,1.615-1.71V1.71A1.686,1.686,0,0,0,54.581,0H23.415A1.625,1.625,0,0,0,21.8,1.71Z" transform="translate(-21.8)"/>
        <rect id="rectangle" class="cls-9" width="24.134" height="1.52" transform="translate(5.131 6.366)"/>
        <rect id="rectangle-2" data-name="rectangle" class="cls-9" width="24.134" height="1.52" transform="translate(5.131 11.117)"/>
        <rect id="rectangle-3" data-name="rectangle" class="cls-9" width="18.718" height="1.52" transform="translate(5.131 15.963)"/>
      </g>
    </g>
    <g id="group-8-2" data-name="group-8" transform="translate(967.082 539.041)">
      <g id="group-9" data-name="group">
        <path id="path-9" data-name="path" class="cls-8" d="M0,4.318V63.687A4.319,4.319,0,0,0,4.318,68H82.487A4.319,4.319,0,0,0,86.8,63.687V4.318A4.319,4.319,0,0,0,82.487,0H4.318A4.378,4.378,0,0,0,0,4.318Z" transform="translate(0 0)"/>
        <path id="path-10" data-name="path" class="cls-10" d="M87.269,0H47.6V68H87.359a4.319,4.319,0,0,0,4.318-4.318V4.318A4.457,4.457,0,0,0,87.269,0Z" transform="translate(-4.782)"/>
        <ellipse id="ellipse" class="cls-11" cx="1.709" cy="1.709" rx="1.709" ry="1.709" transform="translate(81.227 32.293)"/>
        <ellipse id="ellipse-2" data-name="ellipse" class="cls-11" cx="0.989" cy="0.989" rx="0.989" ry="0.989" transform="translate(4.138 33.013)"/>
        <rect id="rectangle-4" data-name="rectangle" class="cls-11" width="70.073" height="52.622" transform="translate(8.366 7.736)"/>
      </g>
      <g id="group-10" data-name="group" transform="translate(14.392 25.637)">
        <rect id="rectangle-5" data-name="rectangle" class="cls-12" width="8.725" height="28.785" transform="translate(23.568)"/>
        <rect id="rectangle-6" data-name="rectangle" class="cls-12" width="8.725" height="16.192" transform="translate(0 12.503)"/>
        <rect id="rectangle-7" data-name="rectangle" class="cls-12" width="8.725" height="24.107" transform="translate(11.784 4.678)"/>
      </g>
      <rect id="rectangle-8" data-name="rectangle" class="cls-13" width="20.599" height="4.678" transform="translate(53.252 12.953)"/>
      <rect id="rectangle-9" data-name="rectangle" class="cls-13" width="20.599" height="4.678" transform="translate(53.252 19.97)"/>
      <rect id="rectangle-10" data-name="rectangle" class="cls-13" width="20.599" height="4.678" transform="translate(53.252 27.076)"/>
      <rect id="rectangle-11" data-name="rectangle" class="cls-13" width="20.599" height="4.678" transform="translate(53.252 34.092)"/>
      <rect id="rectangle-12" data-name="rectangle" class="cls-13" width="20.599" height="4.678" transform="translate(53.252 41.108)"/>
      <rect id="rectangle-13" data-name="rectangle" class="cls-13" width="20.599" height="4.678" transform="translate(53.252 48.215)"/>
    </g>
    <g id="group-9-2" data-name="group-9" transform="translate(905.902 318.96)">
      <path id="path-11" data-name="path" class="cls-7" d="M49.946,86.454H34.077a1.277,1.277,0,1,1,0-2.554H49.946a1.277,1.277,0,0,1,0,2.554Z" transform="translate(-2.885 -7.381)"/>
      <g id="group-11" data-name="group">
        <g id="group-12" data-name="group" transform="translate(19.335 18.332)">
          <path id="path-12" data-name="path" class="cls-14" d="M21.2,39.991a19.791,19.791,0,0,1,39.582,0c0,.638-.456,9.759-7.935,19.426-2.189,2.918-1.824,8.755-1.824,8.755H30.868s.456-5.837-1.733-8.755C21.656,49.75,21.2,40.629,21.2,39.991Z" transform="translate(-21.2 -20.109)"/>
          <path id="path-13" data-name="path" class="cls-8" d="M40.991,68.073H30.867s.456-5.837-1.733-8.755C21.656,49.741,21.2,40.529,21.2,39.891A19.773,19.773,0,0,1,40.991,20.1" transform="translate(-21.2 -20.1)"/>
          <g id="group-13" data-name="group" transform="translate(19.791 4.195)">
            <path id="path-14" data-name="path" class="cls-8" d="M58.5,40.3H56.763A13.857,13.857,0,0,0,42.9,26.433V24.7A15.707,15.707,0,0,1,58.5,40.3Z" transform="translate(-42.9 -24.7)"/>
          </g>
          <g id="group-14" data-name="group" transform="translate(12.039 28.729)">
            <g id="group-15" data-name="group">
              <g id="group-16" data-name="group" transform="translate(10.397)">
                <path id="path-15" data-name="path" class="cls-15" d="M47.442,72.394,45.8,72.121,49.175,51.6l1.733.274Z" transform="translate(-45.8 -51.6)"/>
              </g>
              <g id="group-17" data-name="group">
                <path id="path-16" data-name="path" class="cls-15" d="M37.866,72.394,34.4,51.874l1.733-.274,3.375,20.521Z" transform="translate(-34.4 -51.6)"/>
              </g>
            </g>
            <g id="group-18" data-name="group" transform="translate(1.368 0.182)">
              <path id="path-17" data-name="path" class="cls-15" d="M49.033,54.536c-.73,0-1-.73-1.277-1.186-.091-.182-.274-.638-.365-.638s-.274.456-.365.638c-.182.547-.547,1.186-1.277,1.186s-1-.73-1.277-1.186c-.091-.182-.274-.638-.365-.638s-.274.456-.365.638c-.182.547-.547,1.186-1.277,1.186s-1-.73-1.277-1.186c-.091-.182-.274-.638-.365-.638s-.274.456-.365.638c-.182.547-.547,1.186-1.277,1.186s-1-.73-1.277-1.186c-.091-.182-.274-.638-.365-.638s-.274.456-.365.638c-.182.547-.547,1.186-1.277,1.186v-.912c.091,0,.274-.456.365-.638.182-.547.547-1.186,1.277-1.186s1,.73,1.277,1.186c.091.182.274.638.365.638s.274-.456.365-.638c.182-.547.547-1.186,1.277-1.186s1,.73,1.277,1.186c.091.182.274.638.365.638s.274-.456.365-.638c.182-.547.547-1.186,1.277-1.186s1,.73,1.277,1.186c.091.182.274.638.365.638s.274-.456.365-.638c.182-.547.547-1.186,1.277-1.186s1,.73,1.277,1.186c.091.182.274.638.365.638v.912Z" transform="translate(-35.9 -51.8)"/>
            </g>
          </g>
          <path id="path-18" data-name="path" class="cls-15" d="M52.056,72.7V83.1a1.247,1.247,0,0,1-1.277,1.277h-17.6A1.247,1.247,0,0,1,31.9,83.1V72.7Z" transform="translate(-22.141 -24.727)"/>
          <g id="group-19-2" data-name="group" transform="translate(8.299 47.973)">
            <g id="group-20" data-name="group">
              <line id="line" class="cls-15" x1="20.977" transform="translate(1.003 1.003)"/>
              <path id="path-19" data-name="path" class="cls-7" d="M52.28,74.706H31.3a1,1,0,1,1,0-2.006H52.28a1,1,0,1,1,0,2.006Z" transform="translate(-30.3 -72.7)"/>
            </g>
            <g id="group-21" data-name="group" transform="translate(0 3.375)">
              <line id="line-2" data-name="line" class="cls-15" x1="20.977" transform="translate(1.003 1.003)"/>
              <path id="path-20" data-name="path" class="cls-7" d="M52.28,78.406H31.3a1,1,0,1,1,0-2.006H52.28a1,1,0,1,1,0,2.006Z" transform="translate(-30.3 -76.4)"/>
            </g>
            <g id="group-22" data-name="group" transform="translate(0 6.749)">
              <line id="line-3" data-name="line" class="cls-15" x1="20.977" transform="translate(1.003 1.003)"/>
              <path id="path-21" data-name="path" class="cls-7" d="M52.28,82.106H31.3a1,1,0,1,1,0-2.006H52.28a1,1,0,0,1,0,2.006Z" transform="translate(-30.3 -80.1)"/>
            </g>
          </g>
        </g>
        <g id="group-23" data-name="group">
          <g id="group-24" data-name="group" transform="translate(38.579)">
            <path id="path-22" data-name="path" class="cls-14" d="M42.847,11.948A.588.588,0,0,1,42.3,11.4V.547a.547.547,0,1,1,1.094,0V11.4a.588.588,0,0,1-.547.547Z" transform="translate(-42.3)"/>
          </g>
          <g id="group-25" data-name="group" transform="translate(19.24 5.104)">
            <path id="path-23" data-name="path" class="cls-14" d="M27.119,16.088a.5.5,0,0,1-.456-.274L21.191,6.42a.532.532,0,1,1,.912-.547l5.472,9.394a.493.493,0,0,1-.182.73.335.335,0,0,1-.274.091Z" transform="translate(-21.096 -5.596)"/>
          </g>
          <g id="group-26" data-name="group" transform="translate(5.195 19.24)">
            <path id="path-24" data-name="path" class="cls-14" d="M15.641,27.666a.335.335,0,0,1-.274-.091L5.973,22.1a.532.532,0,1,1,.547-.912l9.394,5.472a.493.493,0,0,1,.182.73c-.182.182-.274.274-.456.274Z" transform="translate(-5.696 -21.096)"/>
          </g>
          <g id="group-27" data-name="group" transform="translate(0 38.579)">
            <path id="path-25" data-name="path" class="cls-14" d="M11.4,43.394H.547a.547.547,0,1,1,0-1.094H11.4a.547.547,0,1,1,0,1.094Z" transform="translate(0 -42.3)"/>
          </g>
          <g id="group-28" data-name="group" transform="translate(5.104 52.347)">
            <path id="path-26" data-name="path" class="cls-14" d="M6.147,63.966a.5.5,0,0,1-.456-.274.493.493,0,0,1,.182-.73l9.394-5.472a.532.532,0,1,1,.547.912L6.42,63.875a.335.335,0,0,1-.274.091Z" transform="translate(-5.596 -57.396)"/>
          </g>
          <g id="group-29" data-name="group" transform="translate(19.24 62.561)">
            <path id="path-27" data-name="path" class="cls-14" d="M21.647,79.088A.335.335,0,0,1,21.373,79a.493.493,0,0,1-.182-.73l5.472-9.394a.532.532,0,0,1,.912.547L22.1,78.814a.5.5,0,0,1-.456.274Z" transform="translate(-21.096 -68.596)"/>
          </g>
          <g id="group-30" data-name="group" transform="translate(52.438 62.561)">
            <path id="path-28" data-name="path" class="cls-14" d="M63.519,79.088a.5.5,0,0,1-.456-.274L57.591,69.42a.532.532,0,0,1,.912-.547l5.472,9.394a.493.493,0,0,1-.182.73.335.335,0,0,1-.274.091Z" transform="translate(-57.496 -68.596)"/>
          </g>
          <g id="group-31" data-name="group" transform="translate(62.653 52.347)">
            <path id="path-29" data-name="path" class="cls-14" d="M78.641,63.966a.335.335,0,0,1-.274-.091L68.973,58.4a.532.532,0,1,1,.547-.912l9.394,5.472a.493.493,0,0,1,.182.73.5.5,0,0,1-.456.274Z" transform="translate(-68.696 -57.396)"/>
          </g>
          <g id="group-32" data-name="group" transform="translate(66.304 38.579)">
            <path id="path-30" data-name="path" class="cls-14" d="M84.1,43.394H73.247a.547.547,0,1,1,0-1.094H84.1a.588.588,0,0,1,.547.547.526.526,0,0,1-.547.547Z" transform="translate(-72.7 -42.3)"/>
          </g>
          <g id="group-33" data-name="group" transform="translate(62.561 19.24)">
            <path id="path-31" data-name="path" class="cls-14" d="M69.147,27.666a.5.5,0,0,1-.456-.274.493.493,0,0,1,.182-.73l9.394-5.472a.532.532,0,1,1,.547.912L69.42,27.575c-.091,0-.182.091-.274.091Z" transform="translate(-68.596 -21.096)"/>
          </g>
          <g id="group-34" data-name="group" transform="translate(52.438 5.104)">
            <path id="path-32" data-name="path" class="cls-14" d="M58.047,16.088A.335.335,0,0,1,57.773,16a.493.493,0,0,1-.182-.73l5.472-9.394a.532.532,0,1,1,.912.547L58.5,15.814a.5.5,0,0,1-.456.274Z" transform="translate(-57.496 -5.596)"/>
          </g>
          <g id="group-35" data-name="group" transform="translate(38.579)">
            <path id="path-33" data-name="path" class="cls-14" d="M42.847,11.948A.588.588,0,0,1,42.3,11.4V.547a.547.547,0,1,1,1.094,0V11.4a.588.588,0,0,1-.547.547Z" transform="translate(-42.3)"/>
          </g>
        </g>
      </g>
    </g>
    <g id="group-21-2" data-name="group-21" transform="translate(1201.795 469.345)">
      <g id="group-7-2" data-name="group-7" transform="translate(41.883)">
        <g id="group-36" data-name="group" transform="translate(0)">
          <g id="group-37" data-name="group">
            <g id="group-38" data-name="group">
              <path id="path-34" data-name="path" class="cls-8" d="M87.924,4C79.572,4,72.8,11.226,72.8,20.137s6.772,16.137,15.124,16.137,15.124-7.226,15.124-16.137S96.276,4,87.924,4Zm0,19.75a3.49,3.49,0,0,1-3.386-3.613,3.393,3.393,0,1,1,6.772,0A3.49,3.49,0,0,1,87.924,23.75Z" transform="translate(-69.79 -0.789)"/>
              <g id="group-39" data-name="group">
                <rect id="rectangle-14" data-name="rectangle" class="cls-8" width="4.063" height="3.452" transform="translate(16.102)"/>
                <path id="rectangle-15" data-name="rectangle" class="cls-8" d="M.094.118,4.225,0,4.131,3.4,0,3.516Z" transform="translate(7.135 3.588) rotate(-29.993)"/>
                <path id="rectangle-16" data-name="rectangle" class="cls-8" d="M.094.118,4.361,0,4.267,3.29,0,3.408Z" transform="translate(1.265 11.548) rotate(-60.007)"/>
                <rect id="rectangle-17" data-name="rectangle" class="cls-8" width="3.235" height="4.335" transform="translate(0 17.181)"/>
                <path id="rectangle-18" data-name="rectangle" class="cls-8" d="M.118.094,3.408,0,3.29,4.267,0,4.361Z" transform="matrix(0.866, -0.5, 0.5, 0.866, 1.232, 27.141)"/>
                <path id="rectangle-19" data-name="rectangle" class="cls-8" d="M.118.094,3.516,0,3.4,4.131,0,4.225Z" transform="matrix(0.5, -0.866, 0.866, 0.5, 7.195, 35.092)"/>
                <rect id="rectangle-20" data-name="rectangle" class="cls-8" width="4.063" height="3.452" transform="translate(16.102 35.325)"/>
                <path id="rectangle-21" data-name="rectangle" class="cls-8" d="M.094.118,4.225,0,4.131,3.4,0,3.516Z" transform="translate(23.7 34.166) rotate(-29.993)"/>
                <path id="rectangle-22" data-name="rectangle" class="cls-8" d="M.094.118,4.361,0,4.267,3.29,0,3.408Z" transform="matrix(0.5, -0.866, 0.866, 0.5, 29.899, 29.255)"/>
                <rect id="rectangle-23" data-name="rectangle" class="cls-8" width="3.235" height="4.335" transform="translate(33.032 17.181)"/>
                <path id="rectangle-24" data-name="rectangle" class="cls-8" d="M.118.094,3.407,0,3.29,4.267,0,4.361Z" transform="translate(29.922 9.541) rotate(-29.988)"/>
                <path id="rectangle-25" data-name="rectangle" class="cls-8" d="M.118.094,3.516,0,3.4,4.131,0,4.225Z" transform="matrix(0.5, -0.866, 0.866, 0.5, 23.685, 4.568)"/>
              </g>
            </g>
          </g>
          <path id="path-35" data-name="path" class="cls-16" d="M90.424,14.2A7.812,7.812,0,0,0,82.9,22.229a7.54,7.54,0,1,0,15.049,0A7.812,7.812,0,0,0,90.424,14.2Zm0,11.561a3.49,3.49,0,0,1-3.386-3.613,3.393,3.393,0,1,1,6.772,0A3.49,3.49,0,0,1,90.424,25.761Z" transform="translate(-72.291 -2.799)"/>
        </g>
      </g>
      <g id="group-7-3" data-name="group-7" transform="translate(0 18.91)">
        <g id="group-40" data-name="group" transform="translate(0)">
          <g id="group-41" data-name="group">
            <g id="group-42" data-name="group">
              <path id="path-36" data-name="path" class="cls-8" d="M94.343,4C82.446,4,72.8,14.292,72.8,26.986s9.646,22.986,21.543,22.986,21.543-10.292,21.543-22.986S106.239,4,94.343,4Zm0,28.133a4.972,4.972,0,0,1-4.823-5.146,4.833,4.833,0,1,1,9.646,0A4.972,4.972,0,0,1,94.343,32.133Z" transform="translate(-68.513 0.574)"/>
              <g id="group-43" data-name="group">
                <rect id="rectangle-26" data-name="rectangle" class="cls-8" width="5.788" height="4.917" transform="translate(22.936)"/>
                <path id="rectangle-27" data-name="rectangle" class="cls-8" d="M.134.168,6.018,0,5.884,4.84,0,5.008Z" transform="translate(10.164 5.111) rotate(-29.993)"/>
                <path id="rectangle-28" data-name="rectangle" class="cls-8" d="M.134.168,6.212,0,6.079,4.686,0,4.854Z" transform="translate(1.802 16.449) rotate(-60.007)"/>
                <rect id="rectangle-29" data-name="rectangle" class="cls-8" width="4.609" height="6.175" transform="translate(0 24.473)"/>
                <path id="rectangle-30" data-name="rectangle" class="cls-8" d="M.168.134,4.854,0,4.686,6.078,0,6.212Z" transform="matrix(0.866, -0.5, 0.5, 0.866, 1.755, 38.66)"/>
                <path id="rectangle-31" data-name="rectangle" class="cls-8" d="M.168.134,5.008,0,4.84,5.885,0,6.018Z" transform="matrix(0.5, -0.866, 0.866, 0.5, 10.249, 49.986)"/>
                <rect id="rectangle-32" data-name="rectangle" class="cls-8" width="5.788" height="4.917" transform="translate(22.936 50.318)"/>
                <path id="rectangle-33" data-name="rectangle" class="cls-8" d="M.134.168,6.018,0,5.884,4.84,0,5.008Z" transform="translate(33.758 48.667) rotate(-29.993)"/>
                <path id="rectangle-34" data-name="rectangle" class="cls-8" d="M.134.168,6.212,0,6.078,4.686,0,4.854Z" transform="matrix(0.5, -0.866, 0.866, 0.5, 42.589, 41.671)"/>
                <rect id="rectangle-35" data-name="rectangle" class="cls-8" width="4.609" height="6.175" transform="translate(47.051 24.473)"/>
                <path id="rectangle-36" data-name="rectangle" class="cls-8" d="M.168.134,4.854,0,4.686,6.079,0,6.212Z" transform="translate(42.622 13.59) rotate(-29.988)"/>
                <path id="rectangle-37" data-name="rectangle" class="cls-8" d="M.168.134,5.008,0,4.84,5.885,0,6.018Z" transform="matrix(0.5, -0.866, 0.866, 0.5, 33.737, 6.506)"/>
              </g>
            </g>
          </g>
          <path id="path-37" data-name="path" class="cls-16" d="M93.618,14.2C87.723,14.2,82.9,19.346,82.9,25.636s4.823,11.436,10.718,11.436,10.718-5.146,10.718-11.436S99.512,14.2,93.618,14.2Zm0,16.468a4.972,4.972,0,0,1-4.823-5.146,4.833,4.833,0,1,1,9.646,0A4.972,4.972,0,0,1,93.618,30.668Z" transform="translate(-67.788 2.039)"/>
        </g>
      </g>
    </g>
  </g>
</svg>
