<svg xmlns="http://www.w3.org/2000/svg" viewBox="1475.5 -336.643 18.143 21">
  <defs>
    <style>
      .cls-1 {
        fill: #868686;
        stroke: rgba(0,0,0,0);
        stroke-width: 1px;
      }
    </style>
  </defs>
  <path id="_" data-name="" class="cls-1" d="M16.384-12.9a2.6,2.6,0,0,1,.536.848,2.576,2.576,0,0,1,.223.982V1.786a1.033,1.033,0,0,1-.312.759,1.033,1.033,0,0,1-.759.313h-15a1.033,1.033,0,0,1-.759-.312A1.033,1.033,0,0,1,0,1.786V-16.071a1.033,1.033,0,0,1,.313-.759,1.033,1.033,0,0,1,.759-.312h10a2.576,2.576,0,0,1,.982.223,2.6,2.6,0,0,1,.848.536Zm-4.955-2.723v4.2h4.2a1.219,1.219,0,0,0-.246-.458l-3.493-3.493A1.219,1.219,0,0,0,11.429-15.625ZM15.714,1.429V-10H11.071a1.033,1.033,0,0,1-.759-.312A1.033,1.033,0,0,1,10-11.071v-4.643H1.429V1.429ZM9.978-5.19a8.492,8.492,0,0,0,.938.625,11.075,11.075,0,0,1,1.306-.078q1.641,0,1.975.547a.539.539,0,0,1,.022.58.032.032,0,0,1-.011.022l-.022.022v.011q-.067.424-.792.424a4.6,4.6,0,0,1-1.283-.223,8.137,8.137,0,0,1-1.451-.592,20.1,20.1,0,0,0-4.375.926Q4.576,0,3.583,0A.649.649,0,0,1,3.27-.078L3-.212q-.011-.011-.067-.056a.461.461,0,0,1-.067-.4,2.424,2.424,0,0,1,.625-1.021A5.394,5.394,0,0,1,4.967-2.768a.163.163,0,0,1,.257.067.064.064,0,0,1,.022.045q.58-.949,1.194-2.2A17.032,17.032,0,0,0,7.6-7.779a9.022,9.022,0,0,1-.34-1.78,4.34,4.34,0,0,1,.073-1.423q.123-.446.469-.446h.246a.471.471,0,0,1,.391.167.891.891,0,0,1,.1.759.242.242,0,0,1-.045.089.29.29,0,0,1,.011.089v.335a14.614,14.614,0,0,1-.156,2.143A5.646,5.646,0,0,0,9.978-5.19ZM3.549-.6A4.928,4.928,0,0,0,5.078-2.366a6.363,6.363,0,0,0-.977.938A3.709,3.709,0,0,0,3.549-.6ZM7.991-10.871A3.319,3.319,0,0,0,7.969-9.4q.011-.078.078-.491,0-.033.078-.48a.251.251,0,0,1,.045-.089.032.032,0,0,1-.011-.022.023.023,0,0,0-.006-.017.023.023,0,0,1-.006-.017.643.643,0,0,0-.145-.4.032.032,0,0,1-.011.022ZM6.607-3.493a16.37,16.37,0,0,1,3.17-.9A1.687,1.687,0,0,1,9.632-4.5a2,2,0,0,1-.179-.151A5.912,5.912,0,0,1,8.036-6.618a14.912,14.912,0,0,1-.926,2.2Q6.775-3.795,6.607-3.493Zm7.21-.179a2.671,2.671,0,0,0-1.562-.268,4.221,4.221,0,0,0,1.384.313,1.082,1.082,0,0,0,.2-.011Q13.839-3.65,13.817-3.672Z" transform="translate(1476 -319)"/>
</svg>
