<svg xmlns="http://www.w3.org/2000/svg" viewBox="1435.5 -336.643 18.143 21">
  <defs>
    <style>
      .cls-1 {
        fill: #868686;
        stroke: rgba(0,0,0,0);
        stroke-width: 1px;
      }
    </style>
  </defs>
  <path id="_" data-name="" class="cls-1" d="M16.384-12.9a2.6,2.6,0,0,1,.536.848,2.576,2.576,0,0,1,.223.982V1.786a1.033,1.033,0,0,1-.312.759,1.033,1.033,0,0,1-.759.313h-15a1.033,1.033,0,0,1-.759-.312A1.033,1.033,0,0,1,0,1.786V-16.071a1.033,1.033,0,0,1,.313-.759,1.033,1.033,0,0,1,.759-.312h10a2.576,2.576,0,0,1,.982.223,2.6,2.6,0,0,1,.848.536Zm-4.955-2.723v4.2h4.2a1.219,1.219,0,0,0-.246-.458l-3.493-3.493A1.219,1.219,0,0,0,11.429-15.625ZM15.714,1.429V-10H11.071a1.033,1.033,0,0,1-.759-.312A1.033,1.033,0,0,1,10-11.071v-4.643H1.429V1.429ZM5.547-1.183,7.712-4.342,5.6-7.377H4.844V-8.571H8.08v1.194H7.232L8.415-5.6a1.331,1.331,0,0,1,.19.257.385.385,0,0,1,.056.112h.022l.022-.033q.033-.045.1-.151T8.917-5.6l1.15-1.775H9.241V-8.571h3.114v1.194h-.748L9.431-4.23l2.143,3.047h.759V0H9.085V-1.183h.848L8.739-2.98l-.073-.095q-.039-.05-.067-.089a.623.623,0,0,1-.05-.084.385.385,0,0,1-.056-.112H8.471q-.011,0-.039.045t-.084.151a1.6,1.6,0,0,1-.112.184l-1.15,1.8h.837V0H4.788V-1.183Z" transform="translate(1436 -319)"/>
</svg>
