<svg xmlns="http://www.w3.org/2000/svg" viewBox="1715.5 -336.643 18.143 21">
  <defs>
    <style>
      .cls-1 {
        fill: #868686;
        stroke: rgba(0,0,0,0);
        stroke-width: 1px;
      }
    </style>
  </defs>
  <path id="_" data-name="" class="cls-1" d="M16.384-12.9a2.6,2.6,0,0,1,.536.848,2.576,2.576,0,0,1,.223.982V1.786a1.033,1.033,0,0,1-.312.759,1.033,1.033,0,0,1-.759.313h-15a1.033,1.033,0,0,1-.759-.312A1.033,1.033,0,0,1,0,1.786V-16.071a1.033,1.033,0,0,1,.313-.759,1.033,1.033,0,0,1,.759-.312h10a2.576,2.576,0,0,1,.982.223,2.6,2.6,0,0,1,.848.536Zm-4.955-2.723v4.2h4.2a1.219,1.219,0,0,0-.246-.458l-3.493-3.493A1.219,1.219,0,0,0,11.429-15.625ZM15.714,1.429V-10H11.071a1.033,1.033,0,0,1-.759-.312A1.033,1.033,0,0,1,10-11.071v-4.643H1.429V1.429Zm-9.766-10v1.194h-1l1.1,4.888a3.118,3.118,0,0,1,.078.513l.022.234h.045l.045-.234q.011-.067.039-.24t.05-.273L7.935-8.571H9.208l1.607,6.083q.022.1.056.279t.045.234l.033.234h.045l.022-.234a3.118,3.118,0,0,1,.078-.513l1.1-4.888h-1V-8.571h3.348v1.194h-.781L11.931,0H10.156L8.728-5.413a1.8,1.8,0,0,1-.061-.29,2.166,2.166,0,0,0-.039-.223l-.033-.268H8.549a2.368,2.368,0,0,1-.022.268,2.386,2.386,0,0,1-.112.513L6.987,0H5.212L3.382-7.377H2.6V-8.571Z" transform="translate(1716 -319)"/>
</svg>
