<svg xmlns="http://www.w3.org/2000/svg" viewBox="1755.5 -336.643 18.143 21">
  <defs>
    <style>
      .cls-1 {
        fill: #868686;
        stroke: rgba(0,0,0,0);
        stroke-width: 1px;
      }
    </style>
  </defs>
  <path id="_" data-name="" class="cls-1" d="M5.714-12.857v-1.429H7.143v1.429Zm1.429,1.429v-1.429H8.571v1.429ZM5.714-10v-1.429H7.143V-10ZM7.143-8.571V-10H8.571v1.429Zm9.241-4.33a2.6,2.6,0,0,1,.536.848,2.576,2.576,0,0,1,.223.982V1.786a1.033,1.033,0,0,1-.312.759,1.033,1.033,0,0,1-.759.313h-15a1.033,1.033,0,0,1-.759-.312A1.033,1.033,0,0,1,0,1.786V-16.071a1.033,1.033,0,0,1,.313-.759,1.033,1.033,0,0,1,.759-.312h10a2.576,2.576,0,0,1,.982.223,2.6,2.6,0,0,1,.848.536Zm-4.955-2.723v4.2h4.2a1.219,1.219,0,0,0-.246-.458l-3.493-3.493A1.219,1.219,0,0,0,11.429-15.625ZM15.714,1.429V-10H11.071a1.033,1.033,0,0,1-.759-.312A1.033,1.033,0,0,1,10-11.071v-4.643H8.571v1.429H7.143v-1.429H1.429V1.429Zm-7-8.047,1.194,3.9a2.04,2.04,0,0,1,.089.58A1.848,1.848,0,0,1,9.191-.608,3.314,3.314,0,0,1,7.143,0,3.314,3.314,0,0,1,5.095-.608a1.848,1.848,0,0,1-.809-1.535,2.04,2.04,0,0,1,.089-.58q.234-.7,1.339-4.42V-8.571H7.143v1.429h.882A.7.7,0,0,1,8.46-7,.711.711,0,0,1,8.717-6.618ZM7.143-1.429a2.214,2.214,0,0,0,1.01-.212q.419-.212.419-.5t-.419-.5a2.213,2.213,0,0,0-1.01-.212,2.214,2.214,0,0,0-1.01.212q-.419.212-.419.5t.419.5A2.214,2.214,0,0,0,7.143-1.429Z" transform="translate(1756 -319)"/>
</svg>
