<svg xmlns="http://www.w3.org/2000/svg" viewBox="1635.5 -336.643 18.143 21">
  <defs>
    <style>
      .cls-1 {
        fill: #868686;
        stroke: rgba(0,0,0,0);
        stroke-width: 1px;
      }
    </style>
  </defs>
  <path id="_" data-name="" class="cls-1" d="M16.384-12.9a2.6,2.6,0,0,1,.536.848,2.576,2.576,0,0,1,.223.982V1.786a1.033,1.033,0,0,1-.312.759,1.033,1.033,0,0,1-.759.313h-15a1.033,1.033,0,0,1-.759-.312A1.033,1.033,0,0,1,0,1.786V-16.071a1.033,1.033,0,0,1,.313-.759,1.033,1.033,0,0,1,.759-.312h10a2.576,2.576,0,0,1,.982.223,2.6,2.6,0,0,1,.848.536Zm-4.955-2.723v4.2h4.2a1.219,1.219,0,0,0-.246-.458l-3.493-3.493A1.219,1.219,0,0,0,11.429-15.625ZM15.714,1.429V-10H11.071a1.033,1.033,0,0,1-.759-.312A1.033,1.033,0,0,1,10-11.071v-4.643H1.429V1.429ZM5.67-1.183V-7.377H4.643V-8.571H8.75a4.039,4.039,0,0,1,1.451.212,2.4,2.4,0,0,1,1.116.971,2.937,2.937,0,0,1,.413,1.574,3.039,3.039,0,0,1-.441,1.629,2.215,2.215,0,0,1-1.189.971,4.073,4.073,0,0,1-1.317.167H7.254v1.864H8.292V0H4.643V-1.183ZM8.583-4.308a2,2,0,0,0,.871-.167,1.352,1.352,0,0,0,.692-1.339A1.365,1.365,0,0,0,9.52-7.1a1.84,1.84,0,0,0-.926-.2H7.254v2.991Z" transform="translate(1636 -319)"/>
</svg>
