<svg xmlns="http://www.w3.org/2000/svg" viewBox="1555.5 -336.643 18.143 21">
  <defs>
    <style>
      .cls-1 {
        fill: #868686;
        stroke: rgba(0,0,0,0);
        stroke-width: 1px;
      }
    </style>
  </defs>
  <path id="_" data-name="" class="cls-1" d="M16.384-12.9a2.6,2.6,0,0,1,.536.848,2.576,2.576,0,0,1,.223.982V1.786a1.033,1.033,0,0,1-.312.759,1.033,1.033,0,0,1-.759.313h-15a1.033,1.033,0,0,1-.759-.312A1.033,1.033,0,0,1,0,1.786V-16.071a1.033,1.033,0,0,1,.313-.759,1.033,1.033,0,0,1,.759-.312h10a2.576,2.576,0,0,1,.982.223,2.6,2.6,0,0,1,.848.536Zm-4.955-2.723v4.2h4.2a1.219,1.219,0,0,0-.246-.458l-3.493-3.493A1.219,1.219,0,0,0,11.429-15.625ZM15.714,1.429V-10H11.071a1.033,1.033,0,0,1-.759-.312A1.033,1.033,0,0,1,10-11.071v-4.643H1.429V1.429Zm-1.429-5V0H2.857V-2.143L5-4.286,6.429-2.857l4.286-4.286ZM5-5.714a2.066,2.066,0,0,1-1.518-.625,2.066,2.066,0,0,1-.625-1.518,2.066,2.066,0,0,1,.625-1.518A2.066,2.066,0,0,1,5-10a2.066,2.066,0,0,1,1.518.625,2.066,2.066,0,0,1,.625,1.518,2.066,2.066,0,0,1-.625,1.518A2.066,2.066,0,0,1,5-5.714Z" transform="translate(1556 -319)"/>
</svg>
