<svg xmlns="http://www.w3.org/2000/svg" viewBox="1595.5 -336.643 18.143 21">
  <defs>
    <style>
      .cls-1 {
        fill: #868686;
        stroke: rgba(0,0,0,0);
        stroke-width: 1px;
      }
    </style>
  </defs>
  <path id="_" data-name="" class="cls-1" d="M16.384-12.9a2.6,2.6,0,0,1,.536.848,2.576,2.576,0,0,1,.223.982V1.786a1.033,1.033,0,0,1-.312.759,1.033,1.033,0,0,1-.759.313h-15a1.033,1.033,0,0,1-.759-.312A1.033,1.033,0,0,1,0,1.786V-16.071a1.033,1.033,0,0,1,.313-.759,1.033,1.033,0,0,1,.759-.312h10a2.576,2.576,0,0,1,.982.223,2.6,2.6,0,0,1,.848.536Zm-4.955-2.723v4.2h4.2a1.219,1.219,0,0,0-.246-.458l-3.493-3.493A1.219,1.219,0,0,0,11.429-15.625ZM15.714,1.429V-10H11.071a1.033,1.033,0,0,1-.759-.312A1.033,1.033,0,0,1,10-11.071v-4.643H1.429V1.429Zm-7.143-10a1.373,1.373,0,0,1,1,.424,1.373,1.373,0,0,1,.424,1v4.286a1.373,1.373,0,0,1-.424,1,1.373,1.373,0,0,1-1,.424H4.286a1.373,1.373,0,0,1-1-.424,1.373,1.373,0,0,1-.424-1V-7.143a1.373,1.373,0,0,1,.424-1,1.373,1.373,0,0,1,1-.424Zm5.491.022a.331.331,0,0,1,.223.335v6.429a.331.331,0,0,1-.223.335.611.611,0,0,1-.134.022.348.348,0,0,1-.257-.1L10.714-4.5v-1l2.958-2.969a.348.348,0,0,1,.257-.1A.611.611,0,0,1,14.063-8.549Z" transform="translate(1596 -319)"/>
</svg>
