<svg xmlns="http://www.w3.org/2000/svg" viewBox="1515.5 -336.643 18.143 21">
  <defs>
    <style>
      .cls-1 {
        fill: #868686;
        stroke: rgba(0,0,0,0);
        stroke-width: 1px;
      }
    </style>
  </defs>
  <path id="_" data-name="" class="cls-1" d="M16.384-12.9a2.6,2.6,0,0,1,.536.848,2.576,2.576,0,0,1,.223.982V1.786a1.033,1.033,0,0,1-.312.759,1.033,1.033,0,0,1-.759.313h-15a1.033,1.033,0,0,1-.759-.312A1.033,1.033,0,0,1,0,1.786V-16.071a1.033,1.033,0,0,1,.313-.759,1.033,1.033,0,0,1,.759-.312h10a2.576,2.576,0,0,1,.982.223,2.6,2.6,0,0,1,.848.536Zm-4.955-2.723v4.2h4.2a1.219,1.219,0,0,0-.246-.458l-3.493-3.493A1.219,1.219,0,0,0,11.429-15.625ZM15.714,1.429V-10H11.071a1.033,1.033,0,0,1-.759-.312A1.033,1.033,0,0,1,10-11.071v-4.643H1.429V1.429ZM6.92-7.656a.331.331,0,0,1,.223.335V-1.25a.331.331,0,0,1-.223.335.611.611,0,0,1-.134.022.4.4,0,0,1-.257-.1L4.676-2.857H3.214a.348.348,0,0,1-.257-.1.348.348,0,0,1-.1-.257V-5.357a.348.348,0,0,1,.1-.257.348.348,0,0,1,.257-.1H4.676L6.529-7.578A.339.339,0,0,1,6.92-7.656ZM11.574.033a.681.681,0,0,1-.446-.167.648.648,0,0,1-.262-.474.708.708,0,0,1,.162-.53,4.849,4.849,0,0,0,1.116-3.147,4.849,4.849,0,0,0-1.116-3.147.708.708,0,0,1-.162-.53.685.685,0,0,1,.262-.485.664.664,0,0,1,.525-.156.671.671,0,0,1,.48.268,6.252,6.252,0,0,1,1.44,4.051,6.252,6.252,0,0,1-1.44,4.051A.677.677,0,0,1,11.574.033ZM9.219-1.618a.741.741,0,0,1-.491-.19A.7.7,0,0,1,8.5-2.3a.69.69,0,0,1,.2-.519,2.106,2.106,0,0,0,.58-1.462,2.106,2.106,0,0,0-.58-1.462.69.69,0,0,1-.2-.519.7.7,0,0,1,.223-.5.68.68,0,0,1,.513-.19.7.7,0,0,1,.5.223,3.46,3.46,0,0,1,.971,2.444,3.46,3.46,0,0,1-.971,2.444A.718.718,0,0,1,9.219-1.618Z" transform="translate(1516 -319)"/>
</svg>
