<svg xmlns="http://www.w3.org/2000/svg" viewBox="10 10 190.044 50">
  <defs>
    <style>
      .cls-1 {
        fill: #5d87a1;
      }

      .cls-2 {
        fill: #4d4d4d;
      }

      .cls-3 {
        fill: #241f21;
      }
    </style>
  </defs>
  <g id="group-45" transform="translate(10 10)">
    <path id="path" class="cls-1" d="M0,17.9H13.22V30.626h8.393V17.9h13.22V55.64H21.613V42.53H13.22V55.64H0Z" transform="translate(0 -12.991)"/>
    <path id="path-2" data-name="path" class="cls-1" d="M217.5,17.9h13.22V30.626h8.393V17.9h13.22V55.64h-13.22V42.53H230.72V55.64H217.5Z" transform="translate(-157.846 -12.991)"/>
    <path id="path-3" data-name="path" class="cls-2" d="M117.68,50l-.521-1.234-19.83-48L97,0h7.433l.165.357L117.68,32.8l13-32.447L130.845,0h7.433l-.329.768-19.775,48Z" transform="translate(-70.396)"/>
    <path id="path-4" data-name="path" class="cls-3" d="M370.815,83.986H369.8V72h1.015v5.568h6.5V72h1.015V83.986h-1.015V78.473h-6.5Z" transform="translate(-268.374 -52.252)"/>
    <path id="path-5" data-name="path" class="cls-3" d="M410.815,77.458h5.019v.905h-4.992v4.69h4.992v.933H409.8V72h6.034v.905h-5.019Z" transform="translate(-297.403 -52.252)"/>
    <path id="path-6" data-name="path" class="cls-3" d="M439.439,73.371,436.888,79.9h5.047ZM436.5,80.859l-1.289,3.127H434.2L438.917,72h1.1l4.58,11.958H443.47l-1.179-3.127H436.5Z" transform="translate(-315.111 -52.252)"/>
    <path id="path-7" data-name="path" class="cls-3" d="M481.248,82.971v1.015H475.9V72h1.015V82.971Z" transform="translate(-345.373 -52.252)"/>
    <path id="path-8" data-name="path" class="cls-3" d="M495.669,83.986h-1.015V72.905H491.5V72h7.323v.905h-3.154Z" transform="translate(-356.695 -52.252)"/>
    <path id="path-9" data-name="path" class="cls-3" d="M523.087,83.986H522.1V72h.987v5.568h6.528V72h1.015V83.986h-1.015V78.473h-6.528Z" transform="translate(-378.902 -52.252)"/>
    <g id="group" transform="translate(153.456 19.556)">
      <path id="path-10" data-name="path" class="cls-3" d="M569.429,81.558a4.139,4.139,0,0,1-1.481,1.4,5.48,5.48,0,0,1-2.825.713c-3.264,0-5.623-2.578-5.623-6.144,0-3.593,2.359-6.226,5.623-6.226a5.655,5.655,0,0,1,3.044.905,4.47,4.47,0,0,1,1.289,1.234l-.741.631A5.375,5.375,0,0,0,567.536,73a4.463,4.463,0,0,0-2.414-.741c-2.633,0-4.553,2.249-4.553,5.293s1.947,5.239,4.635,5.239a4.1,4.1,0,0,0,2.386-.741,4.33,4.33,0,0,0,1.125-1.125Z" transform="translate(-559.5 -71.3)"/>
    </g>
    <path id="path-11" data-name="path" class="cls-3" d="M601.511,73.371,598.96,79.9h5.047ZM598.6,80.859l-1.289,3.127H596.3L601.017,72h1.1l4.58,11.958H605.57l-1.179-3.127H598.6Z" transform="translate(-432.751 -52.252)"/>
    <g id="group-2" data-name="group" transform="translate(174.986 19.748)">
      <path id="path-12" data-name="path" class="cls-3" d="M640.743,78.007c2,0,3.1-.905,3.1-2.578,0-1.7-.96-2.523-2.852-2.523h-1.975v5.1Zm-1.728,5.979H638V72h3.044c2.359,0,3.84,1.289,3.84,3.374a3.286,3.286,0,0,1-2.523,3.291,8.091,8.091,0,0,1-1.509.137h-.466l5.376,5.156h-1.371L639.015,78.8v5.184Z" transform="translate(-638 -72)"/>
    </g>
    <path id="path-13" data-name="path" class="cls-3" d="M671.715,77.458h5.019v.905h-5.019v4.69h5.019v.933H670.7V72h6.034v.905h-5.019Z" transform="translate(-486.745 -52.252)"/>
    <g id="group-3" data-name="group" transform="translate(101.152 33.818)">
      <path id="path-14" data-name="path" class="cls-3" d="M375.6,130.321a3,3,0,0,1-1.015.96,3.807,3.807,0,0,1-1.947.494,3.878,3.878,0,0,1-3.84-4.2c0-2.468,1.618-4.279,3.84-4.279a3.933,3.933,0,0,1,2.084.6,3.161,3.161,0,0,1,.878.85l-.521.439a4.377,4.377,0,0,0-.8-.741,2.99,2.99,0,0,0-1.673-.494c-1.783,0-3.127,1.536-3.127,3.62s1.316,3.593,3.182,3.593a2.967,2.967,0,0,0,1.646-.494,2.88,2.88,0,0,0,.768-.768Z" transform="translate(-368.8 -123.3)"/>
      <path id="path-15" data-name="path" class="cls-3" d="M401.895,123.958a3.353,3.353,0,0,0-3.182,3.62c0,2.084,1.316,3.593,3.182,3.593,1.892,0,3.236-1.481,3.236-3.62a3.336,3.336,0,0,0-3.236-3.593m1.838,7.378a3.973,3.973,0,0,1-1.838.466,3.91,3.91,0,0,1-3.538-2.3,4.657,4.657,0,0,1-.357-1.892,4.016,4.016,0,0,1,3.895-4.306,3.907,3.907,0,0,1,3.456,2.139,4.868,4.868,0,0,1,.466,2.112,3.966,3.966,0,0,1-2.084,3.785" transform="translate(-389.991 -123.3)"/>
    </g>
    <path id="path-16" data-name="path" class="cls-3" d="M437.975,131.388v.686H434.3V123.9h.686v7.488Z" transform="translate(-315.183 -89.918)"/>
    <path id="path-17" data-name="path" class="cls-3" d="M457.775,131.388v.686H454.1V123.9h.686v7.488Z" transform="translate(-329.553 -89.918)"/>
    <path id="path-18" data-name="path" class="cls-3" d="M475.566,124.76l-1.755,4.471h3.456Zm-1.975,5.1L472.713,132H472l3.236-8.2h.741L479.1,132h-.768l-.823-2.139Z" transform="translate(-342.543 -89.845)"/>
    <g id="group-4" data-name="group" transform="translate(138.234 33.818)">
      <path id="path-19" data-name="path" class="cls-3" d="M504.686,131.47h1.152a3.123,3.123,0,0,0,1.81-.3,1.333,1.333,0,0,0,.686-1.289c0-1.1-.631-1.591-2.057-1.591h-1.563v3.182Zm0-3.812h1.234a2.264,2.264,0,0,0,1.454-.357,1.657,1.657,0,0,0,.6-1.289,1.446,1.446,0,0,0-.713-1.317,3.311,3.311,0,0,0-1.563-.219h-.987v3.182Zm3.566.6a1.89,1.89,0,0,1,.713,1.618,2.081,2.081,0,0,1-.905,1.81,3.739,3.739,0,0,1-2.167.411H504v-8.2h2.139c1.536,0,2.5.823,2.5,2.167a1.778,1.778,0,0,1-1.289,1.838,1.736,1.736,0,0,1,.905.357" transform="translate(-504 -123.735)"/>
      <path id="path-20" data-name="path" class="cls-3" d="M531.822,123.958a3.353,3.353,0,0,0-3.182,3.62c0,2.084,1.317,3.593,3.182,3.593,1.893,0,3.236-1.481,3.236-3.62a3.353,3.353,0,0,0-3.236-3.593m1.81,7.378a3.973,3.973,0,0,1-1.838.466,3.91,3.91,0,0,1-3.538-2.3,4.657,4.657,0,0,1-.357-1.892,4.016,4.016,0,0,1,3.895-4.306,3.949,3.949,0,0,1,3.483,2.139,4.868,4.868,0,0,1,.466,2.112,3.941,3.941,0,0,1-2.112,3.785" transform="translate(-521.345 -123.3)"/>
      <path id="path-21" data-name="path" class="cls-3" d="M566.165,127.942c1.371,0,2.139-.6,2.139-1.755s-.658-1.728-1.947-1.728h-1.344v3.483ZM564.986,132H564.3v-8.2h2.084c1.618,0,2.633.878,2.633,2.3a2.246,2.246,0,0,1-1.728,2.249,5.526,5.526,0,0,1-1.042.11h-.329L569.593,132h-.96l-3.675-3.538V132Z" transform="translate(-547.761 -123.663)"/>
    </g>
    <path id="path-22" data-name="path" class="cls-3" d="M591.766,124.76l-1.755,4.471h3.456Zm-1.975,5.1L588.913,132H588.2l3.236-8.2h.741L595.3,132h-.768l-.823-2.139Z" transform="translate(-426.873 -89.845)"/>
    <path id="path-23" data-name="path" class="cls-3" d="M617.425,132.073h-.686V124.5H614.6v-.6h4.992v.6h-2.167Z" transform="translate(-446.032 -89.918)"/>
    <rect id="rectangle" class="cls-3" width="0.686" height="8.201" transform="translate(175.233 33.982)"/>
    <path id="path-24" data-name="path" class="cls-3" d="M653.032,123.9h.768l-2.99,8.173h-.576L647.3,123.9h.74l2.469,7.049Z" transform="translate(-469.763 -89.918)"/>
    <path id="path-25" data-name="path" class="cls-3" d="M677.686,127.63h3.428v.6h-3.428v3.236h3.428v.6H677V123.9h4.114v.6h-3.428Z" transform="translate(-491.317 -89.918)"/>
    <path id="path-26" data-name="path" class="cls-3" d="M370.815,31.123H369.8V19h1.015v5.623h6.61V19h1.015V31.123h-1.015V25.555h-6.61Z" transform="translate(-268.374 -13.789)"/>
    <rect id="rectangle-2" data-name="rectangle" class="cls-3" width="1.015" height="12.123" transform="translate(113.357 5.211)"/>
    <g id="group-5" data-name="group" transform="translate(116.923 4.992)">
      <path id="path-27" data-name="path" class="cls-3" d="M437.71,24.124c0,.247.027.494.027.686,0,3.511-2.3,5.924-5.6,5.924-3.374,0-5.842-2.606-5.842-6.2,0-3.73,2.414-6.336,5.869-6.336a4.872,4.872,0,0,1,2.99.905,4.95,4.95,0,0,1,1.371,1.262l-.768.631a8.2,8.2,0,0,0-1.042-1.015,4.311,4.311,0,0,0-2.578-.823c-2.715,0-4.772,2.3-4.772,5.348,0,2.99,2.03,5.321,4.69,5.321a4.953,4.953,0,0,0,3.895-2.084,4.129,4.129,0,0,0,.8-2.688h-4.663v-.933Z" transform="translate(-426.3 -18.2)"/>
    </g>
    <path id="path-28" data-name="path" class="cls-3" d="M477.942,31.123H476.9V19h1.042v5.623h6.583V19h1.015V31.123h-1.015V25.555h-6.583Z" transform="translate(-346.099 -13.789)"/>
    <path id="path-29" data-name="path" class="cls-3" d="M534.9,19h1.125l-4.416,12.123h-.878L526.4,19h1.125l3.648,10.45Z" transform="translate(-382.023 -13.789)"/>
    <path id="path-30" data-name="path" class="cls-3" d="M564.493,20.4l-2.578,6.61h5.1Zm-2.962,7.57-1.289,3.154H559.2L563.972,19h1.1L569.7,31.123h-1.152l-1.179-3.154Z" transform="translate(-405.826 -13.789)"/>
    <path id="path-31" data-name="path" class="cls-3" d="M609.2,30.108v1.015h-5.4V19h1.015V30.108Z" transform="translate(-438.194 -13.789)"/>
    <g id="group-6" data-name="group" transform="translate(172.216 5.211)">
      <path id="path-32" data-name="path" class="cls-3" d="M628.97,26.268c0,1.81.247,2.66.933,3.264a3.817,3.817,0,0,0,2.359.85,3.936,3.936,0,0,0,2.359-.905c.823-.741.987-1.317.987-3.264V19h1.07v7.268c0,1.892-.247,2.77-.987,3.648a4.408,4.408,0,0,1-3.374,1.426,4.533,4.533,0,0,1-3.483-1.509c-.741-.905-.933-1.591-.933-3.538V19h1.042v7.268Z" transform="translate(-627.9 -19)"/>
    </g>
    <path id="path-33" data-name="path" class="cls-3" d="M671.715,24.513h5.074v.933h-5.047V30.19h5.047v.933H670.7V19h6.089v.933h-5.074Z" transform="translate(-486.745 -13.789)"/>
  </g>
</svg>
