<svg xmlns="http://www.w3.org/2000/svg" viewBox="4070 2032 15.726 18">
  <defs>
    <style>
      .cls-1 {
        fill: #ff9300;
      }
    </style>
  </defs>
  <path id="path" class="cls-1" d="M6782.384,7449.488a8.9,8.9,0,0,1,1.833,2.607,7.5,7.5,0,0,1,.64,3.115,7.733,7.733,0,0,1-.28,2.091,7.843,7.843,0,1,1-8.668-9.893v-1.2h-2.248v-1.124h5.621v1.124h-2.248v1.125a7.92,7.92,0,0,1,2.372.36,7.487,7.487,0,0,1,2.148,1.124l1.832-1.821.787.787Zm-5.4,12.468a6.509,6.509,0,0,0,2.619-.53,6.823,6.823,0,0,0,3.6-3.6,6.747,6.747,0,0,0,0-5.239,6.823,6.823,0,0,0-3.6-3.6,6.748,6.748,0,0,0-5.24,0,6.825,6.825,0,0,0-3.6,3.6,6.747,6.747,0,0,0,0,5.239,6.827,6.827,0,0,0,3.6,3.6,6.51,6.51,0,0,0,2.618.551Zm3.372-6.746v1.124h-4.5v-5.621h1.125v4.5Z" transform="translate(-2699.131 -5413.08)"/>
</svg>
